{"title":"Cuba.Feliz.(2000).DVDRip.Xvid.MKO","uid":10754186,"size":1504353941,"categoryP":"video","categoryS":"movies","magnet":"?xt=urn:btih:95814901f1938fb249fa9b24bb60ed89c32ea0cd&amp;dn=Cuba.Feliz.%282000%29.DVDRip.Xvid.MKO&amp;tr=udp%3A%2F%2Ftracker.openbittorrent.com%3A80&amp;tr=udp%3A%2F%2Fopen.demonii.com%3A1337&amp;tr=udp%3A%2F%2Ftracker.coppersurfer.tk%3A6969&amp;tr=udp%3A%2F%2Fexodus.desync.com%3A6969","seeders":2,"leechers":0,"uploader":"loreanmko","files":-1,"time":1407912572,"description":"Format                                   : AVI\nFormat/Info                              : Audio Video Interleave\nFile size                                : 1.40 GiB\nDuration                                 : 1h 32mn\nOverall bit rate                         : 2 172 Kbps\nWriting application                      : Lavf54.63.104\nWriting library                          : VirtualDub build 35491/release\n\nVideo\nID                                       : 0\nFormat                                   : xvid\nCodec ID                                 : xvid\nDuration                                 : 1h 32mn\nBit rate                                 : 1 838 Kbps\nWidth                                    : 720 pixels\nHeight                                   : 400 pixels\nDisplay aspect ratio                     : 16:9\nFrame rate                               : 29.970 fps\nBits/(Pixel*Frame)                       : 0.213\nStream size                              : 1.19 GiB (85%)\n\nAudio\nID                                       : 1\nFormat                                   : MPEG Audio\nFormat version                           : Version 1\nFormat profile                           : Layer 3\nMode                                     : Joint stereo\nMode extension                           : MS Stereo\nCodec ID                                 : 55\nCodec ID/Hint                            : MP3\nDuration                                 : 1h 32mn\nBit rate mode                            : Constant\nBit rate                                 : 320 Kbps\nChannel count                            : 2 channels\nSampling rate                            : 48.0 KHz\nCompression mode                         : Lossy\nStream size                              : 211 MiB (15%)\nAlignment                                : Split accross interleaves\nInterleave, duration                     : 24 ms (0.72 video frame)\nInterleave, preload duration             : 604 ms\nWriting library                          : LAME3.99.5\n","torrent":{"xt":"urn:btih:95814901f1938fb249fa9b24bb60ed89c32ea0cd","amp;dn":"Cuba.Feliz.%282000%29.DVDRip.Xvid.MKO","amp;tr":["udp%3A%2F%2Ftracker.openbittorrent.com%3A80","udp%3A%2F%2Fopen.demonii.com%3A1337","udp%3A%2F%2Ftracker.coppersurfer.tk%3A6969","udp%3A%2F%2Fexodus.desync.com%3A6969"],"infoHash":"95814901f1938fb249fa9b24bb60ed89c32ea0cd","infoHashBuffer":{"type":"Buffer","data":[149,129,73,1,241,147,143,178,73,250,155,36,187,96,237,137,195,46,160,205]},"announce":[],"urlList":[]}}